<?xml version="1.0" standalone="no"?>
<!DOCTYPE svg PUBLIC "-//W3C//DTD SVG 20010904//EN"
 "http://www.w3.org/TR/2001/REC-SVG-20010904/DTD/svg10.dtd">
<svg version="1.0" xmlns="http://www.w3.org/2000/svg"
 width="160.000000pt" height="160.000000pt" viewBox="0 0 160.000000 160.000000"
 preserveAspectRatio="xMidYMid meet">
<metadata>
Created by potrace 1.11, written by Peter Selinger 2001-2013
</metadata>
<g transform="translate(0.000000,160.000000) scale(0.100000,-0.100000)"
fill="#000000" stroke="none">
<path d="M687 1564 c-38 -20 -46 -47 -46 -151 -1 -114 -2 -205 -3 -212 0 -3 0
-9 1 -13 4 -15 3 -198 0 -199 -2 0 -17 4 -32 10 -55 21 -111 -3 -133 -56 -10
-22 -14 -61 -13 -100 l2 -64 -43 -21 c-53 -26 -74 -71 -66 -137 13 -117 50
-179 141 -239 70 -46 87 -61 80 -72 -2 -3 -6 -23 -9 -45 -4 -22 -9 -56 -12
-75 -3 -19 -8 -38 -10 -42 -8 -12 56 -57 113 -78 67 -25 207 -34 294 -18 64
11 143 52 171 88 20 25 20 51 4 136 -16 82 -15 99 8 168 40 121 51 241 30 354
-16 85 -39 114 -109 133 -22 6 -57 22 -78 36 -36 25 -83 32 -126 18 -14 -4
-17 3 -18 37 -3 184 -14 448 -19 473 -7 40 -25 62 -58 75 -34 13 -35 12 -69
-6z"/>
</g>
</svg>
